# xmcd
#
# Track frame offsets:
#	150
#	15286
#	29899
#	42572
#	59058
#	73054
#	87395
#	101916
#	115741
#	130033
#
# Disc length: 1917 seconds
#
# Revision: 1
# Processed by: cddbd v1.5.2PL0 Copyright (c) Steve Scherf et al.
# Submitted via: audiograbber 1.83.01
#
DISCID=90077b0a
DTITLE=Rionegro and Solimões - O Cowboy vai te pegar
DYEAR=2013
DGENRE=Country
TTITLE0=o cowboy vai te pegar
TTITLE1=o que você não faz
TTITLE2=quem foi que disse
TTITLE3=viví
TTITLE4=festa lá em casa
TTITLE5=a força de uma paixão
TTITLE6=o nosso tempo passou
TTITLE7=deu paixão
TTITLE8=a noite é uma criança
TTITLE9=romântica
EXTD=
EXTT0=
EXTT1=
EXTT2=
EXTT3=
EXTT4=
EXTT5=
EXTT6=
EXTT7=
EXTT8=
EXTT9=
PLAYORDER=
